# xmcd
#
# Track frame offsets: 
#        150
#        10804
#        21243
#        30503
#        43666
#        54639
#        66147
#        78241
#        95112
#        110756
#        123752
#        133088
#        143927
#        155371
#        171952
#        184478
#        195410
#        207795
#        218994
#        235514
#        251092
#        266373
#
# Disc length: 3771 seconds
#
# Revision: 0
# Processed by: cddbd v1.5.2PL0 Copyright (c) Steve Scherf et al.
# Submitted via: ExactAudioCopyFreeDBPlugin 1.0
#
DISCID=380eb916
DTITLE=Various Artist - The Last Ride - A Story Of Hank Williams
DYEAR=2012
DGENRE=Soundtrack
TTITLE0=Benjy Gaither - The Last Ride (Theme)
TTITLE1=Jett Williams - Hey, Good Lookin'
TTITLE2=Russ Taff - Honky Tonk Man
TTITLE3=Rebecca Frazier - Keep On The Sunny Side
TTITLE4=Wes Hampton - I Will Marry You
TTITLE5=Sarah Johns - It Wasn't God Who Made Honky Tonk Angels
TTITLE6=Doug Anderson - Cold, Cold Heart
TTITLE7=Clyde Wright and The Incredible Golden Gates - Swing Low, Sweet 
TTITLE7=Chariot
TTITLE8=Michael English - I'm So Lonesome I Could Cry
TTITLE9=Jett Williams - Longing
TTITLE10=Benjy Gaither - Footprints
TTITLE11=The Blackwood Brothers - I'm Winging My Way Back Home
TTITLE12=Jett Williams - I Can't Help It (If I'm Still In Love With Yo
TTITLE12=u)
TTITLE13=Val Storey - On Down The Road
TTITLE14=Nathan Young - Chino
TTITLE15=Nathan Young - Ilene
TTITLE16=Nathan Young - What Ya Gonna Do
TTITLE17=Nathan Young - Tennessee Waltz
TTITLE18=The Isaacs - O Come Angel Band
TTITLE19=Jett Williams - Hank Williams Blues
TTITLE20=Johnny Cash featuring Waylon Jennings - The Night Hank Willia
TTITLE20=ms Came To Town
TTITLE21=Tony Ramey - The Last Ride
EXTD=
EXTT0=
EXTT1=
EXTT2=
EXTT3=
EXTT4=
EXTT5=
EXTT6=
EXTT7=
EXTT8=
EXTT9=
EXTT10=
EXTT11=
EXTT12=
EXTT13=
EXTT14=
EXTT15=
EXTT16=
EXTT17=
EXTT18=
EXTT19=
EXTT20=
EXTT21=
PLAYORDER=
